<?xml version="1.0" encoding="UTF-8"?>
<svg width="79px" height="74px" viewBox="0 0 79 74" version="1.1" xmlns="http://www.w3.org/2000/svg" xmlns:xlink="http://www.w3.org/1999/xlink">
    <!-- Generator: Sketch 43.2 (39069) - http://www.bohemiancoding.com/sketch -->
    <title>Group</title>
    <desc>Created with Sketch.</desc>
    <defs></defs>
    <g id="Page-1" stroke="none" stroke-width="1" fill="none" fill-rule="evenodd">
        <g id="Group" transform="translate(-1.000000, 0.000000)">
            <polygon id="Star" stroke="#CAC5C5" fill="#DAD5D5" points="40.5 60.75 16.6946973 73.2651883 21.2411055 46.7575941 1.98221109 27.9848117 28.5973486 24.1174059 40.5 0 52.4026514 24.1174059 79.0177889 27.9848117 59.7588945 46.7575941 64.3053027 73.2651883"></polygon>
            <path d="M38.109375,45.84375 L38.109375,50.9951172 L43.1630859,50.9951172 C44.367519,50.9951172 45.2260717,51.2270485 45.7387695,51.690918 C46.2514674,52.1547875 46.5078125,52.761064 46.5078125,53.5097656 C46.5078125,54.2421912 46.2514674,54.8403297 45.7387695,55.3041992 C45.2260717,55.7680687 44.367519,56 43.1630859,56 L32.3232422,56 C31.1188091,56 30.2602565,55.7680687 29.7475586,55.3041992 C29.2348607,54.8403297 28.9785156,54.2340532 28.9785156,53.4853516 C28.9785156,52.752926 29.2389297,52.1547875 29.7597656,51.690918 C30.2806016,51.2270485 31.1350852,50.9951172 32.3232422,50.9951172 L33.1044922,50.9951172 L33.1044922,31.4150391 L32.3232422,31.4150391 C31.1188091,31.4150391 30.2602565,31.1831078 29.7475586,30.7192383 C29.2348607,30.2553688 28.9785156,29.6490923 28.9785156,28.9003906 C28.9785156,28.151689 29.2348607,27.5454125 29.7475586,27.081543 C30.2602565,26.6176735 31.1188091,26.3857422 32.3232422,26.3857422 L43.8466797,26.4101562 C47.2321133,26.4101562 49.9135643,27.3338124 51.8911133,29.1811523 C53.8686622,31.0284923 54.8574219,33.2786326 54.8574219,35.9316406 C54.8574219,37.3964917 54.5237664,38.7799414 53.8564453,40.0820312 C53.3518855,41.0585986 52.5096088,42.0229445 51.3295898,42.9750977 C50.1495709,43.9272509 48.9451559,44.6433895 47.7163086,45.1235352 C46.4874613,45.6036808 44.8639424,45.84375 42.8457031,45.84375 L38.109375,45.84375 Z M38.109375,40.8388672 L42.7480469,40.8388672 C44.9290474,40.8388672 46.6583595,40.3465219 47.9360352,39.3618164 C49.2137108,38.377111 49.8525391,37.1930408 49.8525391,35.8095703 C49.8525391,34.6376895 49.3357799,33.6123091 48.3022461,32.7333984 C47.2687123,31.8544878 45.7916763,31.4150391 43.8710938,31.4150391 L38.109375,31.4150391 L38.109375,40.8388672 Z" id="P" fill="#9A1010"></path>
        </g>
    </g>
</svg>